# xmcd
#
# Track frame offsets:
# 150
# 32208
# 58550
# 87953
# 107241
# 138529
# 187108
# 213977
# 230022
#
# Disc length: 3386 seconds
#
#
# Revision: 2
# Processed by: cddbd v1.4PL0 Copyright (c) Steve Scherf et al.
# Submitted via: FreeRIP 2.40 
#
DISCID=830d3809
DTITLE=Jack Semple - Jack Semple Band Live at Kaos
DYEAR=2002
DGENRE=Blues
TTITLE0=Saskadelphia
TTITLE1=Do what cha do best
TTITLE2=Love wars
TTITLE3=Down to the Mardi Gras
TTITLE4=The thrill is gone
TTITLE5=Rainy night in Georgia
TTITLE6=When my baby comes back
TTITLE7=Hard times
TTITLE8=The hog report
EXTD=
EXTT0=
EXTT1=
EXTT2=
EXTT3=
EXTT4=
EXTT5=
EXTT6=
EXTT7=
EXTT8=
PLAYORDER=
